<svg width="16" height="16" viewBox="0 0 16 16" fill="none" xmlns="http://www.w3.org/2000/svg">
<path d="M8 1C11.866 1 15 4.13401 15 8C15 11.866 11.866 15 8 15C4.13401 15 1 11.866 1 8C1 4.13401 4.13401 1 8 1ZM12.3965 3.36426C12.0454 3.14519 11.5838 3.25168 11.3643 3.60254L6.94238 10.6738L4.59961 7.5498C4.35102 7.2187 3.88107 7.15194 3.5498 7.40039C3.21873 7.64898 3.15195 8.11894 3.40039 8.4502L6.38281 12.4268C6.38533 12.4304 6.38804 12.4339 6.39062 12.4375L6.40039 12.4502C6.42121 12.4779 6.44406 12.5034 6.46777 12.5273C6.5078 12.5677 6.55225 12.6053 6.60254 12.6367C6.60824 12.6403 6.61436 12.6431 6.62012 12.6465C6.62224 12.6477 6.62482 12.6482 6.62695 12.6494C6.7117 12.6982 6.80181 12.7281 6.89355 12.7412C6.89776 12.7418 6.90204 12.7417 6.90625 12.7422C6.949 12.7475 6.99154 12.75 7.03418 12.748C7.04467 12.7476 7.05495 12.7451 7.06543 12.7441C7.10396 12.7407 7.1422 12.7368 7.17969 12.7275C7.18537 12.7261 7.19063 12.7232 7.19629 12.7217C7.23785 12.7104 7.27821 12.696 7.31738 12.6777C7.34995 12.6625 7.38132 12.6444 7.41211 12.624C7.42214 12.6174 7.43264 12.6116 7.44238 12.6045C7.44485 12.6027 7.44774 12.6014 7.4502 12.5996C7.48001 12.5772 7.50674 12.5521 7.53223 12.5264C7.54015 12.5183 7.54806 12.5104 7.55566 12.502C7.5583 12.499 7.56089 12.4961 7.56348 12.4932C7.58946 12.4634 7.61512 12.432 7.63672 12.3975L12.6357 4.39746C12.855 4.04624 12.7476 3.58372 12.3965 3.36426Z" fill="white"/>
</svg>
