<svg width="16" height="16" viewBox="0 0 16 16" fill="none" xmlns="http://www.w3.org/2000/svg">
<path d="M8 1C11.866 1 15 4.13401 15 8C15 11.866 11.866 15 8 15C4.13401 15 1 11.866 1 8C1 4.13401 4.13401 1 8 1ZM12.5303 3.46973C12.2374 3.17683 11.7626 3.17683 11.4697 3.46973L8 6.93945L4.53027 3.46973C4.23738 3.17683 3.76262 3.17683 3.46973 3.46973C3.17683 3.76262 3.17683 4.23738 3.46973 4.53027L6.93945 8L3.46973 11.4697C3.17683 11.7626 3.17683 12.2374 3.46973 12.5303C3.76263 12.8231 4.23741 12.8231 4.53027 12.5303L8 9.06055L11.4697 12.5303C11.7626 12.8231 12.2374 12.8231 12.5303 12.5303C12.8231 12.2374 12.8231 11.7626 12.5303 11.4697L9.06055 8L12.5303 4.53027C12.8231 4.23741 12.8231 3.76263 12.5303 3.46973Z" fill="white"/>
</svg>
