<svg width="16" height="16" viewBox="0 0 16 16" fill="none" xmlns="http://www.w3.org/2000/svg">
<rect x="4" y="7" width="8" height="7" rx="1" fill="white"/>
<path d="M11 5C11 4.20435 10.6839 3.44129 10.1213 2.87868C9.55871 2.31607 8.79565 2 8 2C7.20435 2 6.44129 2.31607 5.87868 2.87868C5.31607 3.44129 5 4.20435 5 5L5.99945 5C5.99945 4.46942 6.21022 3.96057 6.5854 3.5854C6.96057 3.21022 7.46942 2.99945 8 2.99945C8.53058 2.99945 9.03943 3.21022 9.4146 3.5854C9.78978 3.96057 10.0005 4.46942 10.0005 5H11Z" fill="white"/>
<rect x="10" y="5" width="1" height="5" fill="white"/>
<rect x="5" y="5" width="1" height="5" fill="white"/>
</svg>
