<svg width="16" height="16" viewBox="0 0 16 16" fill="none" xmlns="http://www.w3.org/2000/svg">
<path d="M5.62104 3.62516C5.99931 2.9268 7.00172 2.92661 7.37983 3.62516L9.28608 7.14762L9.78217 6.35563C10.174 5.72969 11.0858 5.72946 11.4775 6.35563L15.3017 12.4699C15.7179 13.1357 15.2392 13.9997 14.454 14.0002H1.68354C0.925994 14.0001 0.444015 13.1898 0.804631 12.5236L5.62104 3.62516ZM12.4999 11.0002C12.2238 11.0002 11.9999 11.224 11.9999 11.5002V12.5002C12 12.7763 12.2238 13.0002 12.4999 13.0002C12.776 13.0001 12.9999 12.7762 12.9999 12.5002V11.5002C12.9999 11.224 12.7761 11.0002 12.4999 11.0002ZM4.49994 9.00016C4.2238 9.00016 3.99994 9.22402 3.99994 9.50016V11.5002C4 11.7763 4.22384 12.0002 4.49994 12.0002C4.77602 12.0001 4.99989 11.7762 4.99994 11.5002V9.50016C4.99994 9.22404 4.77606 9.0002 4.49994 9.00016ZM7.49994 6.00016C7.2238 6.00016 6.99994 6.22402 6.99994 6.50016V7.50016C7 7.77626 7.22384 8.00016 7.49994 8.00016C7.77602 8.00013 7.99989 7.77624 7.99994 7.50016V6.50016C7.99994 6.22404 7.77606 6.0002 7.49994 6.00016Z" fill="white"/>
</svg>
